<svg xmlns="http://www.w3.org/2000/svg" width="500" height="500" style="width:100%;height:100%;transform:translate3d(0,0,0);content-visibility:visible" viewBox="0 0 500 500"><defs><clipPath id="a"><path d="M0 0h500v500H0z"/></clipPath><clipPath id="c"><path d="M0 0h500v500H0z"/></clipPath><clipPath id="b"><path d="M0 0h500v500H0z"/></clipPath></defs><g clip-path="url(#a)"><g clip-path="url(#b)" style="display:block"><g class="primary design" style="display:none"><path/><path/></g><g fill="#FFF" class="primary design" style="display:block"><path d="M141.267 437.471c-15.206 0-29.579-6.04-40.41-16.872l-21.664-21.664C68.57 388.312 62.53 373.94 62.53 358.525c0-15.206 6.041-29.578 16.664-40.41L192.51 204.592c-6.041-38.12 6.874-78.113 34.786-105.817 38.952-38.952 99.15-47.492 146.643-20.83 4.166 2.291 7.082 6.666 7.915 11.457.625 4.79-1.041 9.79-4.374 13.123l-72.905 72.905 20.622 20.621 72.696-72.696c3.542-3.542 8.332-5.208 13.332-4.375 4.79.625 9.165 3.75 11.456 7.916 26.038 48.117 17.29 106.441-21.663 145.601-27.704 27.704-67.698 40.619-105.816 34.786L181.885 420.807c-10.831 10.623-25.204 16.664-40.618 16.664zM314.78 93.776c-23.746 0-47.493 9.373-65.406 27.079-22.289 22.288-31.87 54.991-24.788 85.403 1.25 5.207-.417 10.832-4.166 14.581L101.273 340.195c-4.999 5-7.707 11.456-7.707 18.33 0 6.874 2.708 13.54 7.707 18.33l21.663 21.664c9.79 9.79 26.871 9.79 36.661 0l119.148-119.356c3.75-3.75 9.373-5.416 14.58-4.166 30.204 7.082 62.907-2.291 85.404-24.788 23.746-23.746 32.495-57.282 24.371-88.319l-66.864 67.281c-6.041 6.04-16.04 6.04-22.08 0l-42.493-42.702c-6.041-6.04-6.041-16.039 0-22.08L339.152 96.9c-8.124-2.083-16.248-3.124-24.371-3.124z"/><path d="M146.058 374.773c-11.457 0-20.83-9.374-20.83-20.83 0-11.457 9.165-20.83 20.621-20.83h.209c11.456 0 20.83 9.373 20.83 20.83 0 11.665-9.374 20.83-20.83 20.83z"/></g><g class="primary design" style="display:none"><path fill="none"/><path/><path fill="none"/></g></g><g clip-path="url(#c)" opacity="0" style="display:block"><g class="primary design" style="display:none"><path/><path/></g><g class="primary design" style="display:none"><path/><path fill="none"/></g><g fill="none" class="primary design" style="display:none"><path/><path/></g></g><g class="com" style="display:none"><path/><path/><path/><path/><path/><path/><path/><path/><path/><path/><path/><path/></g></g></svg>